<mxfile host="app.diagrams.net" modified="2022-04-06T12:30:00.173Z" agent="5.0 (Windows NT 10.0; Win64; x64) AppleWebKit/537.36 (KHTML, like Gecko) Chrome/99.0.4844.84 Safari/537.36" etag="UEw05EEVd1EOpqyQRWDH" version="17.4.0" type="github">
  <diagram id="RxK-hwhavK0Ak2JXyipl" name="Page-1">
    <mxGraphModel dx="1422" dy="905" grid="1" gridSize="10" guides="1" tooltips="1" connect="1" arrows="1" fold="1" page="1" pageScale="1" pageWidth="1169" pageHeight="827" background="none" math="0" shadow="0">
      <root>
        <mxCell id="0" />
        <mxCell id="1" parent="0" />
        <mxCell id="ioeeAYF5F3X1Td2HvDtU-1" value="" style="group" vertex="1" connectable="0" parent="1">
          <mxGeometry x="120" y="310" width="560" height="140" as="geometry" />
        </mxCell>
        <mxCell id="9mTpWFLZTC0OJPlyUyN7-3" value="Teacher" style="shape=umlActor;verticalLabelPosition=bottom;verticalAlign=top;html=1;outlineConnect=0;" parent="ioeeAYF5F3X1Td2HvDtU-1" vertex="1">
          <mxGeometry y="9" width="30" height="60" as="geometry" />
        </mxCell>
        <mxCell id="9mTpWFLZTC0OJPlyUyN7-56" value="" style="endArrow=none;html=1;rounded=0;" parent="ioeeAYF5F3X1Td2HvDtU-1" source="9mTpWFLZTC0OJPlyUyN7-89" target="9mTpWFLZTC0OJPlyUyN7-3" edge="1">
          <mxGeometry width="50" height="50" relative="1" as="geometry">
            <mxPoint x="204.5115588987244" y="-25.552776358350343" as="sourcePoint" />
            <mxPoint x="440" y="-80" as="targetPoint" />
          </mxGeometry>
        </mxCell>
        <mxCell id="9mTpWFLZTC0OJPlyUyN7-58" value="" style="endArrow=none;html=1;rounded=0;" parent="ioeeAYF5F3X1Td2HvDtU-1" source="9mTpWFLZTC0OJPlyUyN7-63" target="9mTpWFLZTC0OJPlyUyN7-3" edge="1">
          <mxGeometry width="50" height="50" relative="1" as="geometry">
            <mxPoint x="208.6605676469219" y="54.48123314684722" as="sourcePoint" />
            <mxPoint x="40" y="-35.9375" as="targetPoint" />
          </mxGeometry>
        </mxCell>
        <mxCell id="9mTpWFLZTC0OJPlyUyN7-63" value="Manage Account" style="ellipse;whiteSpace=wrap;html=1;" parent="ioeeAYF5F3X1Td2HvDtU-1" vertex="1">
          <mxGeometry x="190" y="54" width="130" height="30" as="geometry" />
        </mxCell>
        <mxCell id="9mTpWFLZTC0OJPlyUyN7-64" value="Change Password" style="ellipse;whiteSpace=wrap;html=1;" parent="ioeeAYF5F3X1Td2HvDtU-1" vertex="1">
          <mxGeometry x="120" y="110" width="130" height="30" as="geometry" />
        </mxCell>
        <mxCell id="9mTpWFLZTC0OJPlyUyN7-65" value="" style="endArrow=classic;html=1;rounded=0;" parent="ioeeAYF5F3X1Td2HvDtU-1" source="9mTpWFLZTC0OJPlyUyN7-64" target="9mTpWFLZTC0OJPlyUyN7-63" edge="1">
          <mxGeometry width="50" height="50" relative="1" as="geometry">
            <mxPoint x="440" y="170" as="sourcePoint" />
            <mxPoint x="390" y="220" as="targetPoint" />
          </mxGeometry>
        </mxCell>
        <mxCell id="9mTpWFLZTC0OJPlyUyN7-66" value="Logout" style="ellipse;whiteSpace=wrap;html=1;" parent="ioeeAYF5F3X1Td2HvDtU-1" vertex="1">
          <mxGeometry x="260" y="110" width="130" height="30" as="geometry" />
        </mxCell>
        <mxCell id="9mTpWFLZTC0OJPlyUyN7-67" value="" style="endArrow=classic;html=1;rounded=0;" parent="ioeeAYF5F3X1Td2HvDtU-1" source="9mTpWFLZTC0OJPlyUyN7-66" target="9mTpWFLZTC0OJPlyUyN7-63" edge="1">
          <mxGeometry width="50" height="50" relative="1" as="geometry">
            <mxPoint x="390" y="220" as="sourcePoint" />
            <mxPoint x="440" y="170" as="targetPoint" />
          </mxGeometry>
        </mxCell>
        <mxCell id="9mTpWFLZTC0OJPlyUyN7-68" value="Authentication" style="ellipse;whiteSpace=wrap;html=1;" parent="ioeeAYF5F3X1Td2HvDtU-1" vertex="1">
          <mxGeometry x="440" y="24" width="120" height="30" as="geometry" />
        </mxCell>
        <mxCell id="9mTpWFLZTC0OJPlyUyN7-69" value="" style="endArrow=classic;html=1;rounded=0;dashed=1;" parent="ioeeAYF5F3X1Td2HvDtU-1" source="9mTpWFLZTC0OJPlyUyN7-68" target="9mTpWFLZTC0OJPlyUyN7-89" edge="1">
          <mxGeometry relative="1" as="geometry">
            <mxPoint x="500" y="-35" as="sourcePoint" />
            <mxPoint x="303.8236518084202" y="-25.097738224771092" as="targetPoint" />
          </mxGeometry>
        </mxCell>
        <mxCell id="9mTpWFLZTC0OJPlyUyN7-70" value="&amp;lt;&amp;lt;include&amp;gt;&amp;gt;" style="edgeLabel;resizable=0;html=1;align=center;verticalAlign=middle;" parent="9mTpWFLZTC0OJPlyUyN7-69" connectable="0" vertex="1">
          <mxGeometry relative="1" as="geometry" />
        </mxCell>
        <mxCell id="9mTpWFLZTC0OJPlyUyN7-73" value="" style="endArrow=classic;html=1;rounded=0;dashed=1;" parent="ioeeAYF5F3X1Td2HvDtU-1" source="9mTpWFLZTC0OJPlyUyN7-68" target="9mTpWFLZTC0OJPlyUyN7-63" edge="1">
          <mxGeometry relative="1" as="geometry">
            <mxPoint x="490" y="4" as="sourcePoint" />
            <mxPoint x="330" y="25" as="targetPoint" />
          </mxGeometry>
        </mxCell>
        <mxCell id="9mTpWFLZTC0OJPlyUyN7-74" value="&amp;lt;&amp;lt;include&amp;gt;&amp;gt;" style="edgeLabel;resizable=0;html=1;align=center;verticalAlign=middle;" parent="9mTpWFLZTC0OJPlyUyN7-73" connectable="0" vertex="1">
          <mxGeometry relative="1" as="geometry" />
        </mxCell>
        <mxCell id="9mTpWFLZTC0OJPlyUyN7-89" value="Answer Student" style="ellipse;whiteSpace=wrap;html=1;" parent="ioeeAYF5F3X1Td2HvDtU-1" vertex="1">
          <mxGeometry x="190" width="130" height="30" as="geometry" />
        </mxCell>
        <mxCell id="ioeeAYF5F3X1Td2HvDtU-2" value="" style="group" vertex="1" connectable="0" parent="1">
          <mxGeometry x="120" y="60" width="560" height="210" as="geometry" />
        </mxCell>
        <mxCell id="9mTpWFLZTC0OJPlyUyN7-2" value="Student" style="shape=umlActor;verticalLabelPosition=bottom;verticalAlign=top;html=1;outlineConnect=0;" parent="ioeeAYF5F3X1Td2HvDtU-2" vertex="1">
          <mxGeometry y="45" width="30" height="60" as="geometry" />
        </mxCell>
        <mxCell id="9mTpWFLZTC0OJPlyUyN7-9" value="Send Message Admin" style="ellipse;whiteSpace=wrap;html=1;" parent="ioeeAYF5F3X1Td2HvDtU-2" vertex="1">
          <mxGeometry x="190" width="130" height="30" as="geometry" />
        </mxCell>
        <mxCell id="9mTpWFLZTC0OJPlyUyN7-10" value="Send Message Teacher" style="ellipse;whiteSpace=wrap;html=1;fontSize=11;" parent="ioeeAYF5F3X1Td2HvDtU-2" vertex="1">
          <mxGeometry x="190" y="60" width="130" height="30" as="geometry" />
        </mxCell>
        <mxCell id="9mTpWFLZTC0OJPlyUyN7-12" value="" style="endArrow=none;html=1;rounded=0;" parent="ioeeAYF5F3X1Td2HvDtU-2" source="9mTpWFLZTC0OJPlyUyN7-2" target="9mTpWFLZTC0OJPlyUyN7-9" edge="1">
          <mxGeometry width="50" height="50" relative="1" as="geometry">
            <mxPoint x="50" y="50" as="sourcePoint" />
            <mxPoint x="100" as="targetPoint" />
          </mxGeometry>
        </mxCell>
        <mxCell id="9mTpWFLZTC0OJPlyUyN7-13" value="" style="endArrow=none;html=1;rounded=0;" parent="ioeeAYF5F3X1Td2HvDtU-2" source="9mTpWFLZTC0OJPlyUyN7-2" target="9mTpWFLZTC0OJPlyUyN7-10" edge="1">
          <mxGeometry width="50" height="50" relative="1" as="geometry">
            <mxPoint x="30" y="30" as="sourcePoint" />
            <mxPoint x="440" y="100" as="targetPoint" />
          </mxGeometry>
        </mxCell>
        <mxCell id="9mTpWFLZTC0OJPlyUyN7-16" value="Authentication" style="ellipse;whiteSpace=wrap;html=1;" parent="ioeeAYF5F3X1Td2HvDtU-2" vertex="1">
          <mxGeometry x="440" y="60" width="120" height="30" as="geometry" />
        </mxCell>
        <mxCell id="9mTpWFLZTC0OJPlyUyN7-24" value="" style="endArrow=classic;html=1;rounded=0;dashed=1;" parent="ioeeAYF5F3X1Td2HvDtU-2" source="9mTpWFLZTC0OJPlyUyN7-16" target="9mTpWFLZTC0OJPlyUyN7-9" edge="1">
          <mxGeometry relative="1" as="geometry">
            <mxPoint x="380" y="120" as="sourcePoint" />
            <mxPoint x="480" y="120" as="targetPoint" />
          </mxGeometry>
        </mxCell>
        <mxCell id="9mTpWFLZTC0OJPlyUyN7-25" value="&amp;lt;&amp;lt;include&amp;gt;&amp;gt;" style="edgeLabel;resizable=0;html=1;align=center;verticalAlign=middle;" parent="9mTpWFLZTC0OJPlyUyN7-24" connectable="0" vertex="1">
          <mxGeometry relative="1" as="geometry" />
        </mxCell>
        <mxCell id="9mTpWFLZTC0OJPlyUyN7-26" value="" style="endArrow=classic;html=1;rounded=0;dashed=1;" parent="ioeeAYF5F3X1Td2HvDtU-2" source="9mTpWFLZTC0OJPlyUyN7-16" target="9mTpWFLZTC0OJPlyUyN7-10" edge="1">
          <mxGeometry relative="1" as="geometry">
            <mxPoint x="360" y="130" as="sourcePoint" />
            <mxPoint x="460" y="130" as="targetPoint" />
          </mxGeometry>
        </mxCell>
        <mxCell id="9mTpWFLZTC0OJPlyUyN7-27" value="&amp;lt;&amp;lt;include&amp;gt;&amp;gt;" style="edgeLabel;resizable=0;html=1;align=center;verticalAlign=middle;" parent="9mTpWFLZTC0OJPlyUyN7-26" connectable="0" vertex="1">
          <mxGeometry relative="1" as="geometry" />
        </mxCell>
        <mxCell id="9mTpWFLZTC0OJPlyUyN7-29" value="Manage Account" style="ellipse;whiteSpace=wrap;html=1;" parent="ioeeAYF5F3X1Td2HvDtU-2" vertex="1">
          <mxGeometry x="190" y="120" width="130" height="30" as="geometry" />
        </mxCell>
        <mxCell id="9mTpWFLZTC0OJPlyUyN7-30" value="" style="endArrow=none;html=1;rounded=0;" parent="ioeeAYF5F3X1Td2HvDtU-2" source="9mTpWFLZTC0OJPlyUyN7-29" target="9mTpWFLZTC0OJPlyUyN7-2" edge="1">
          <mxGeometry width="50" height="50" relative="1" as="geometry">
            <mxPoint x="390" y="150" as="sourcePoint" />
            <mxPoint x="30" y="30" as="targetPoint" />
          </mxGeometry>
        </mxCell>
        <mxCell id="9mTpWFLZTC0OJPlyUyN7-32" value="" style="endArrow=classic;html=1;rounded=0;dashed=1;" parent="ioeeAYF5F3X1Td2HvDtU-2" source="9mTpWFLZTC0OJPlyUyN7-16" target="9mTpWFLZTC0OJPlyUyN7-29" edge="1">
          <mxGeometry relative="1" as="geometry">
            <mxPoint x="490" y="55" as="sourcePoint" />
            <mxPoint x="330" y="85" as="targetPoint" />
          </mxGeometry>
        </mxCell>
        <mxCell id="9mTpWFLZTC0OJPlyUyN7-33" value="&amp;lt;&amp;lt;include&amp;gt;&amp;gt;" style="edgeLabel;resizable=0;html=1;align=center;verticalAlign=middle;" parent="9mTpWFLZTC0OJPlyUyN7-32" connectable="0" vertex="1">
          <mxGeometry relative="1" as="geometry" />
        </mxCell>
        <mxCell id="9mTpWFLZTC0OJPlyUyN7-34" value="Change Password" style="ellipse;whiteSpace=wrap;html=1;" parent="ioeeAYF5F3X1Td2HvDtU-2" vertex="1">
          <mxGeometry x="120" y="180" width="130" height="30" as="geometry" />
        </mxCell>
        <mxCell id="9mTpWFLZTC0OJPlyUyN7-38" value="" style="endArrow=classic;html=1;rounded=0;" parent="ioeeAYF5F3X1Td2HvDtU-2" source="9mTpWFLZTC0OJPlyUyN7-34" target="9mTpWFLZTC0OJPlyUyN7-29" edge="1">
          <mxGeometry width="50" height="50" relative="1" as="geometry">
            <mxPoint x="440" y="240" as="sourcePoint" />
            <mxPoint x="390" y="290" as="targetPoint" />
          </mxGeometry>
        </mxCell>
        <mxCell id="9mTpWFLZTC0OJPlyUyN7-39" value="Logout" style="ellipse;whiteSpace=wrap;html=1;" parent="ioeeAYF5F3X1Td2HvDtU-2" vertex="1">
          <mxGeometry x="260" y="180" width="130" height="30" as="geometry" />
        </mxCell>
        <mxCell id="9mTpWFLZTC0OJPlyUyN7-40" value="" style="endArrow=classic;html=1;rounded=0;" parent="ioeeAYF5F3X1Td2HvDtU-2" source="9mTpWFLZTC0OJPlyUyN7-39" target="9mTpWFLZTC0OJPlyUyN7-29" edge="1">
          <mxGeometry width="50" height="50" relative="1" as="geometry">
            <mxPoint x="390" y="290" as="sourcePoint" />
            <mxPoint x="440" y="240" as="targetPoint" />
          </mxGeometry>
        </mxCell>
        <mxCell id="ioeeAYF5F3X1Td2HvDtU-3" value="" style="group" vertex="1" connectable="0" parent="1">
          <mxGeometry x="120" y="490" width="550" height="160" as="geometry" />
        </mxCell>
        <mxCell id="9mTpWFLZTC0OJPlyUyN7-4" value="Admin" style="shape=umlActor;verticalLabelPosition=bottom;verticalAlign=top;html=1;outlineConnect=0;" parent="ioeeAYF5F3X1Td2HvDtU-3" vertex="1">
          <mxGeometry y="15" width="30" height="60" as="geometry" />
        </mxCell>
        <mxCell id="9mTpWFLZTC0OJPlyUyN7-75" value="Answer Student" style="ellipse;whiteSpace=wrap;html=1;" parent="ioeeAYF5F3X1Td2HvDtU-3" vertex="1">
          <mxGeometry x="180" width="130" height="30" as="geometry" />
        </mxCell>
        <mxCell id="9mTpWFLZTC0OJPlyUyN7-77" value="Manage Users" style="ellipse;whiteSpace=wrap;html=1;" parent="ioeeAYF5F3X1Td2HvDtU-3" vertex="1">
          <mxGeometry x="180" y="60" width="130" height="30" as="geometry" />
        </mxCell>
        <mxCell id="9mTpWFLZTC0OJPlyUyN7-82" value="Authentication" style="ellipse;whiteSpace=wrap;html=1;" parent="ioeeAYF5F3X1Td2HvDtU-3" vertex="1">
          <mxGeometry x="430" y="30" width="120" height="30" as="geometry" />
        </mxCell>
        <mxCell id="9mTpWFLZTC0OJPlyUyN7-83" value="" style="endArrow=classic;html=1;rounded=0;dashed=1;" parent="ioeeAYF5F3X1Td2HvDtU-3" source="9mTpWFLZTC0OJPlyUyN7-82" target="9mTpWFLZTC0OJPlyUyN7-75" edge="1">
          <mxGeometry relative="1" as="geometry">
            <mxPoint x="490" y="-25" as="sourcePoint" />
            <mxPoint x="330" y="-55" as="targetPoint" />
          </mxGeometry>
        </mxCell>
        <mxCell id="9mTpWFLZTC0OJPlyUyN7-84" value="&amp;lt;&amp;lt;include&amp;gt;&amp;gt;" style="edgeLabel;resizable=0;html=1;align=center;verticalAlign=middle;" parent="9mTpWFLZTC0OJPlyUyN7-83" connectable="0" vertex="1">
          <mxGeometry relative="1" as="geometry" />
        </mxCell>
        <mxCell id="9mTpWFLZTC0OJPlyUyN7-87" value="" style="endArrow=classic;html=1;rounded=0;dashed=1;" parent="ioeeAYF5F3X1Td2HvDtU-3" source="9mTpWFLZTC0OJPlyUyN7-82" target="9mTpWFLZTC0OJPlyUyN7-77" edge="1">
          <mxGeometry relative="1" as="geometry">
            <mxPoint x="480" y="14" as="sourcePoint" />
            <mxPoint x="320" y="35" as="targetPoint" />
          </mxGeometry>
        </mxCell>
        <mxCell id="9mTpWFLZTC0OJPlyUyN7-88" value="&amp;lt;&amp;lt;include&amp;gt;&amp;gt;" style="edgeLabel;resizable=0;html=1;align=center;verticalAlign=middle;" parent="9mTpWFLZTC0OJPlyUyN7-87" connectable="0" vertex="1">
          <mxGeometry relative="1" as="geometry" />
        </mxCell>
        <mxCell id="9mTpWFLZTC0OJPlyUyN7-101" value="" style="endArrow=none;html=1;rounded=0;fontSize=11;" parent="ioeeAYF5F3X1Td2HvDtU-3" source="9mTpWFLZTC0OJPlyUyN7-4" target="9mTpWFLZTC0OJPlyUyN7-75" edge="1">
          <mxGeometry width="50" height="50" relative="1" as="geometry">
            <mxPoint x="400" y="-100" as="sourcePoint" />
            <mxPoint x="450" y="-150" as="targetPoint" />
          </mxGeometry>
        </mxCell>
        <mxCell id="9mTpWFLZTC0OJPlyUyN7-102" value="" style="endArrow=none;html=1;rounded=0;fontSize=11;" parent="ioeeAYF5F3X1Td2HvDtU-3" source="9mTpWFLZTC0OJPlyUyN7-4" target="9mTpWFLZTC0OJPlyUyN7-77" edge="1">
          <mxGeometry width="50" height="50" relative="1" as="geometry">
            <mxPoint x="30" y="67.1875" as="sourcePoint" />
            <mxPoint x="204.5525899924428" y="34.45888937641712" as="targetPoint" />
          </mxGeometry>
        </mxCell>
        <mxCell id="9mTpWFLZTC0OJPlyUyN7-105" value="Add Users" style="ellipse;whiteSpace=wrap;html=1;" parent="ioeeAYF5F3X1Td2HvDtU-3" vertex="1">
          <mxGeometry x="70" y="130" width="110" height="30" as="geometry" />
        </mxCell>
        <mxCell id="9mTpWFLZTC0OJPlyUyN7-108" value="Modify Users" style="ellipse;whiteSpace=wrap;html=1;" parent="ioeeAYF5F3X1Td2HvDtU-3" vertex="1">
          <mxGeometry x="190" y="130" width="110" height="30" as="geometry" />
        </mxCell>
        <mxCell id="9mTpWFLZTC0OJPlyUyN7-109" value="Delete Users" style="ellipse;whiteSpace=wrap;html=1;" parent="ioeeAYF5F3X1Td2HvDtU-3" vertex="1">
          <mxGeometry x="310" y="130" width="100" height="30" as="geometry" />
        </mxCell>
        <mxCell id="9mTpWFLZTC0OJPlyUyN7-110" value="" style="endArrow=classic;html=1;rounded=0;fontSize=11;" parent="ioeeAYF5F3X1Td2HvDtU-3" source="9mTpWFLZTC0OJPlyUyN7-105" target="9mTpWFLZTC0OJPlyUyN7-77" edge="1">
          <mxGeometry width="50" height="50" relative="1" as="geometry">
            <mxPoint x="-30" y="10" as="sourcePoint" />
            <mxPoint x="20" y="-40" as="targetPoint" />
          </mxGeometry>
        </mxCell>
        <mxCell id="9mTpWFLZTC0OJPlyUyN7-111" value="" style="endArrow=classic;html=1;rounded=0;fontSize=11;" parent="ioeeAYF5F3X1Td2HvDtU-3" source="9mTpWFLZTC0OJPlyUyN7-109" target="9mTpWFLZTC0OJPlyUyN7-77" edge="1">
          <mxGeometry width="50" height="50" relative="1" as="geometry">
            <mxPoint x="530" y="130" as="sourcePoint" />
            <mxPoint x="580" y="80" as="targetPoint" />
          </mxGeometry>
        </mxCell>
        <mxCell id="9mTpWFLZTC0OJPlyUyN7-112" value="" style="endArrow=classic;html=1;rounded=0;fontSize=11;" parent="ioeeAYF5F3X1Td2HvDtU-3" source="9mTpWFLZTC0OJPlyUyN7-108" target="9mTpWFLZTC0OJPlyUyN7-77" edge="1">
          <mxGeometry width="50" height="50" relative="1" as="geometry">
            <mxPoint x="100" y="40" as="sourcePoint" />
            <mxPoint x="150" y="-10" as="targetPoint" />
          </mxGeometry>
        </mxCell>
      </root>
    </mxGraphModel>
  </diagram>
</mxfile>
